# File created by Blade
# Date/Time:  Wed Jan 21 16:02:01 2015
# Frame Rate: 120.000 fps
#------------------------------------------------------
:FULLY-SPECIFIED
:DEGREES
646
root 20.028133 32.637350 -18.167622 -171.526365 3.048500 -179.520693
Spine -20.391253 5.504548 -6.326931
Head 12.946475 -4.013988 -3.656013
LeftShoulder -13.128752 -28.439440 -4.155766
LeftArm -44.193082 -9.087748 -45.915374
LeftForeArm 1.209569 -0.000000 9.650917
LeftHand -1.978221 -0.000000 3.359748
LeftHandThumb1 -26.253704 0.000000 33.147579
RightShoulder -7.922416 18.507745 -48.633826
RightArm 42.321934 49.002810 -6.454595
RightForeArm -41.684567 -0.000000 7.726687
RightHand -3.110866 -0.000000 -2.430039
RightHandThumb1 -24.326973 -0.000000 -32.862282
LeftUpLeg 13.134260 1.631111 -18.019220
LeftLeg -1.817493 -0.000000 0.000000
LeftFoot -34.240237 19.430896 -15.127827
LeftToeBase 17.070200 -0.000000 -0.000000
RightUpLeg -18.384204 10.430326 21.602908
RightLeg -3.188027 -0.000000 0.000000
RightFoot -1.779403 -31.370934 -3.278279
RightToeBase 21.011884 -0.000000 -0.000000
647
root 20.019915 32.638850 -18.166099 -171.558476 3.018671 -179.506521
Spine -20.258840 5.345497 -6.248641
Head 12.785850 -4.000515 -3.604869
LeftShoulder -13.023925 -28.413368 -4.182108
LeftArm -43.995957 -9.098647 -46.091577
LeftForeArm 1.168170 -0.000000 9.417983
LeftHand -1.944345 -0.000000 3.262089
LeftHandThumb1 -26.253704 0.000000 33.147579
RightShoulder -7.982739 18.511259 -48.572319
RightArm 42.306118 49.091451 -6.511114
RightForeArm -41.589714 -0.000000 7.733209
RightHand -3.108779 -0.000000 -2.647411
RightHandThumb1 -24.326973 -0.000000 -32.862282
LeftUpLeg 13.172011 1.591700 -18.014428
LeftLeg -1.825307 -0.000000 0.000000
LeftFoot -34.211170 19.419371 -15.131887
LeftToeBase 17.052380 -0.000000 -0.000000
RightUpLeg -18.356996 10.412378 21.603001
RightLeg -3.202264 -0.000000 0.000000
RightFoot -1.786334 -31.398757 -3.271566
RightToeBase 21.020407 -0.000000 -0.000000
648
root 20.011918 32.639994 -18.165188 -171.599587 2.989151 -179.490007
Spine -20.115317 5.194671 -6.164136
Head 12.620779 -3.976321 -3.560303
LeftShoulder -12.900501 -28.356236 -4.208854
LeftArm -43.791265 -9.192003 -46.231321
LeftForeArm 1.243392 -0.000000 9.153830
LeftHand -1.803984 0.000000 3.117284
LeftHandThumb1 -26.253704 0.000000 33.147579
RightShoulder -8.042531 18.486351 -48.502200
RightArm 42.263842 49.179548 -6.620940
RightForeArm -41.477419 -0.000000 7.731917
RightHand -3.141182 -0.000000 -2.888778
RightHandThumb1 -24.326973 -0.000000 -32.862282
LeftUpLeg 13.220880 1.553520 -18.004362
LeftLeg -1.832706 -0.000000 0.000000
LeftFoot -34.181702 19.422549 -15.109634
LeftToeBase 17.038737 -0.000000 -0.000000
RightUpLeg -18.314979 10.377642 21.615697
RightLeg -3.229111 -0.000000 0.000000
RightFoot -1.770031 -31.432948 -3.280810
RightToeBase 20.974610 -0.000000 -0.000000
649
root 20.003949 32.641439 -18.162936 -171.627284 2.969391 -179.473295
Spine -19.995427 5.053929 -6.089096
Head 12.471105 -3.950274 -3.498078
LeftShoulder -12.752337 -28.331184 -4.229630
LeftArm -43.628070 -9.160637 -46.432812
LeftForeArm 1.214767 0.000000 8.931770
LeftHand -1.865851 -0.000000 2.993088
LeftHandThumb1 -26.253704 0.000000 33.147579
RightShoulder -8.088348 18.405404 -48.401071
RightArm 42.267720 49.381041 -6.658413
RightForeArm -41.428690 -0.000000 7.746773
RightHand -3.135287 -0.000000 -3.148833
RightHandThumb1 -24.326973 -0.000000 -32.862282
LeftUpLeg 13.253746 1.521505 -17.993418
LeftLeg -1.843962 -0.000000 0.000000
LeftFoot -34.178509 19.409686 -15.103205
LeftToeBase 17.103460 -0.000000 -0.000000
RightUpLeg -18.289067 10.310232 21.637451
RightLeg -3.239854 -0.000000 0.000000
RightFoot -1.783191 -31.381735 -3.282176
RightToeBase 21.050648 -0.000000 -0.000000
